<svg width="64" height="72" viewBox="0 0 64 72" fill="none" xmlns="http://www.w3.org/2000/svg">
<g opacity="0.85" clip-path="url(#clip0_14_97)">
<path d="M45.6035 45.153L45.6035 48.3876L51.0398 48.3876L51.0398 39.7575" fill="black"/>
<path d="M12.9601 39.7575L12.9601 48.3876L18.3965 48.3876L18.3965 45.153" fill="black"/>
<path d="M27.3915 15.9912L20.6353 8.39057C19.8541 7.51167 20.5466 6.01345 21.6386 6.23325L30.5697 8.07093L33.4303 8.07093L42.3615 6.23325C43.4535 6.01345 44.146 7.51167 43.3647 8.39057L36.6086 15.9912" fill="black"/>
<path d="M1.8541 28.7439C1.60298 28.4896 1.40848 28.2143 1.26398 27.9246C0.165479 25.714 2.14285 22.7409 4.54723 23.8355L26.8955 33.9912L37.1029 33.9912L59.4511 23.8356C61.8554 22.7409 63.8391 25.7211 62.7344 27.9246C62.6025 28.2141 62.4017 28.4826 62.1505 28.7367L37.0967 53.5888L26.902 53.5888L1.8541 28.7439Z" fill="#027FA5"/>
<path d="M1.85425 28.7439C1.60312 28.4896 1.40862 28.2143 1.26412 27.9246C1.84162 26.7099 3.116 25.9118 4.54737 26.5615L26.9017 36.7242L37.1029 36.7312L59.4575 26.5688C60.8825 25.912 62.1631 26.7172 62.7344 27.9247C62.6025 28.2143 62.4017 28.4827 62.1505 28.7369L37.0968 53.5889L26.902 53.5889L1.85425 28.7439Z" fill="black"/>
<path d="M31.122 6.95246L29.1334 10.9575C27.6685 13.8939 26.8963 17.2098 26.8963 20.5755L26.8963 60.2565C26.8963 63.8614 27.765 66.6101 28.7857 68.5952C30.2213 71.3873 33.7792 71.3861 35.2123 68.5925C36.2305 66.6076 37.0969 63.86 37.0969 60.2565L37.0969 20.5756C37.0969 17.2099 36.3335 13.894 34.8685 10.9576L32.8799 6.9526L32.8799 6.94262" fill="black"/>
<path d="M33.3094 10.9577L32.4007 6.95226L32.4007 6.94523L32.8803 6.94241L32.8803 6.9524L34.868 10.9578C36.3333 13.8941 37.0969 17.2094 37.0969 20.5759L37.0969 60.2562C37.0969 63.8597 36.2312 66.6071 35.2127 68.5921C34.4958 69.9892 33.2463 70.6893 31.9982 70.6893C32.5687 70.6879 33.1378 69.9878 33.4659 68.5921C33.9317 66.6072 34.3279 63.8598 34.3279 60.2562L34.3279 20.5757C34.3279 17.2092 33.9783 13.8939 33.3094 10.9577Z" fill="#D5D8DB"/>
<path d="M31.9968 6.94806L32.4006 6.94294L32.4006 6.94543L31.9968 6.94806Z" fill="#D5D8DB"/>
<path d="M1.2247 29.5397L12.0133 40.242L12.0133 48.3877C12.0133 48.9758 12.4371 49.4526 12.96 49.4526L18.3962 49.4526C18.919 49.4526 19.3428 48.9759 19.3428 48.3877L19.3428 47.5127L25.9495 54.0664L25.9495 60.2566C25.9495 63.5805 26.6437 66.5959 28.0131 69.2192C28.8516 70.8252 30.341 71.7839 31.9982 71.7839C31.999 71.7839 32 71.7839 32.0006 71.7839C33.6583 71.783 35.1478 70.8228 35.985 69.2155C37.3507 66.5931 38.0433 63.579 38.0433 60.2566L38.0433 54.0734L44.6568 47.5128L44.6568 48.3877C44.6568 48.9758 45.0806 49.4526 45.6035 49.4526L51.0398 49.4526C51.5626 49.4526 51.9865 48.9759 51.9865 48.3877L51.9865 40.242L62.7748 29.5397C64.326 28.001 64.23 25.8732 63.447 24.4471C62.8616 23.381 61.793 22.5257 60.4897 22.5259C60.0495 22.5259 59.5823 22.6236 59.0982 22.8436L54.4682 24.948C53.9836 25.1684 53.7493 25.789 53.9452 26.3342C54.1411 26.8795 54.6927 27.1429 55.1773 26.9225L59.8073 24.8181C60.7633 24.3835 61.4975 24.9496 61.8361 25.5662C62.1747 26.1828 62.2957 27.1752 61.5226 27.9421L38.043 51.2338L38.043 34.7108L51.3792 28.6491C51.8638 28.4288 52.0981 27.8082 51.9022 27.263C51.7063 26.7178 51.1547 26.4542 50.6701 26.6746L38.0433 32.4141L38.0433 20.5757C38.0433 19.1429 37.9089 17.7181 37.6503 16.3253L44.0339 9.14374C44.6887 8.40714 44.8341 7.3329 44.4043 6.40703C44.0357 5.61278 43.3451 5.14689 42.5776 5.14689C42.4504 5.14689 42.3212 5.15969 42.191 5.18598L33.8939 6.89318C33.6382 6.54105 33.3112 6.26739 32.9429 6.09471L32.9429 1.32583C32.9429 0.742656 32.5434 0.234294 32.0254 0.216716C31.4894 0.198718 31.0498 0.682185 31.0498 1.28125L31.0498 6.10117C30.6864 6.2747 30.3636 6.54639 30.1111 6.8943L21.8051 5.18515C21.6758 5.15913 21.5473 5.14633 21.4209 5.14633C20.6555 5.14633 19.9642 5.61236 19.5955 6.40689C19.1658 7.33277 19.3112 8.407 19.966 9.1436L26.3463 16.3215C26.0853 17.7174 25.9496 19.1433 25.9496 20.5754L25.9496 26.0937C25.9496 26.6818 26.3733 27.1586 26.8962 27.1586C27.419 27.1586 27.8428 26.6819 27.8428 26.0937L27.8428 20.5754C27.8428 17.3993 28.5746 14.2538 29.9598 11.4767L31.0501 9.28112L31.0501 15.4463C31.0501 16.0294 31.4496 16.5378 31.9676 16.5554C32.5036 16.5734 32.9432 16.0899 32.9432 15.491L32.9432 9.25778L34.0432 11.4785C35.4218 14.242 36.1503 17.3876 36.1503 20.5753L36.1503 60.2566C36.1503 63.1953 35.5452 65.8474 34.3518 68.1387C33.8578 69.0871 32.9786 69.6534 31.9998 69.654C31.9993 69.654 31.999 69.654 31.9985 69.654C31.0198 69.654 30.1403 69.0882 29.6456 68.1406C28.4492 65.8488 27.8427 63.1962 27.8427 60.2566L27.8427 31.0635C27.8427 30.4754 27.419 29.9986 26.8961 29.9986C26.3733 29.9986 25.9495 30.4753 25.9495 31.0635L25.9495 32.411L4.90133 22.8437C4.41708 22.6236 3.9502 22.5259 3.50983 22.5259C2.20682 22.5259 1.13795 23.3812 0.552578 24.4471C-0.230419 25.8732 -0.32642 28.001 1.2247 29.5397ZM50.0933 47.3226L46.5501 47.3226L46.5501 45.6348L50.0933 42.1199L50.0933 47.3226ZM26.9193 13.9545L21.3046 7.63778C21.2786 7.60853 21.2095 7.53077 21.2736 7.39254C21.3377 7.2543 21.4351 7.27427 21.4681 7.28073L29.0953 8.85025L28.3078 10.4364C27.7471 11.5605 27.2838 12.7395 26.9193 13.9545ZM34.9078 8.84969L42.5278 7.28172C42.5644 7.27469 42.662 7.25444 42.726 7.39282C42.7902 7.53091 42.7211 7.60881 42.6951 7.63792L37.0797 13.9551C36.7166 12.7388 36.2545 11.5605 35.6952 10.4393L34.9078 8.84969ZM17.4497 47.3226L13.9066 47.3226L13.9066 42.1199L17.4497 45.6347L17.4497 47.3226ZM2.1632 25.5663C2.50183 24.9497 3.23633 24.3838 4.19195 24.8182L25.9495 34.7078L25.9495 51.227L2.4767 27.9422C1.70358 27.1752 1.82458 26.183 2.1632 25.5663Z" fill="black"/>
<path d="M34.8068 64.0174C35.1764 63.6016 35.1764 62.9273 34.8068 62.5115C34.437 62.0956 33.8378 62.0956 33.468 62.5115C32.6568 63.4241 31.3368 63.4241 30.5257 62.5115C30.3408 62.3036 30.0984 62.1996 29.8563 62.1996C29.6142 62.1996 29.3718 62.3035 29.1869 62.5115C28.8173 62.9273 28.8173 63.6016 29.1869 64.0174C30.7363 65.7605 33.2571 65.7605 34.8068 64.0174Z" fill="black"/>
</g>
<defs>
<clipPath id="clip0_14_97">
<rect width="64" height="72" fill="white" transform="translate(64 72) rotate(180)"/>
</clipPath>
</defs>
</svg>
