<svg width="8" height="8" viewBox="0 0 8 8" fill="none" xmlns="http://www.w3.org/2000/svg">
<g clip-path="url(#clip0_14_31)">
<path d="M6.52475 2.09272L4.3166 4.30088C4.23199 4.38548 4.11954 4.43206 3.99996 4.43206C3.8804 4.43206 3.76795 4.38551 3.68338 4.30088L1.4752 2.09272C1.13766 1.75525 0.590581 1.75525 0.253106 2.09272C-0.0843687 2.43022 -0.0843687 2.97735 0.253106 3.31482L2.46129 5.52296C2.8723 5.934 3.41873 6.16039 4 6.16039C4.58126 6.16039 5.12769 5.934 5.53873 5.523L7.74689 3.31483C8.08436 2.97736 8.08436 2.43021 7.74689 2.09273C7.40939 1.75525 6.8622 1.75525 6.52475 2.09272Z" fill="white"/>
</g>
<defs>
<clipPath id="clip0_14_31">
<rect width="8" height="8" fill="white"/>
</clipPath>
</defs>
</svg>
