<svg width="36" height="36" viewBox="0 0 36 36" fill="none" xmlns="http://www.w3.org/2000/svg">
<g clip-path="url(#clip0_32_26)">
<path d="M26.2551 0H9.74485C4.37145 0 0 4.37145 0 9.74485V26.2554C0 31.6285 4.37145 35.9999 9.74485 35.9999H26.2554C31.6285 35.9999 35.9999 31.6285 35.9999 26.2554V9.74485C35.9999 4.37145 31.6285 0 26.2551 0V0ZM33.8895 26.2554C33.8895 30.4648 30.4648 33.8895 26.2551 33.8895H9.74485C5.53518 33.8895 2.11047 30.4648 2.11047 26.2554V9.74485C2.11047 5.53518 5.53518 2.11047 9.74485 2.11047H26.2554C30.4648 2.11047 33.8895 5.53518 33.8895 9.74485V26.2554Z" fill="#333333"/>
<path d="M18 8.15649C12.5722 8.15649 8.15649 12.5722 8.15649 18C8.15649 23.4277 12.5722 27.8434 18 27.8434C23.4277 27.8434 27.8434 23.4277 27.8434 18C27.8434 12.5722 23.4277 8.15649 18 8.15649ZM18 25.7329C13.7362 25.7329 10.267 22.264 10.267 18C10.267 13.7362 13.7362 10.267 18 10.267C22.264 10.267 25.7329 13.7362 25.7329 18C25.7329 22.264 22.264 25.7329 18 25.7329Z" fill="#333333"/>
<path d="M28.0788 4.66064C26.4748 4.66064 25.1702 5.96554 25.1702 7.56927C25.1702 9.17327 26.4748 10.4782 28.0788 10.4782C29.6828 10.4782 30.9877 9.17327 30.9877 7.56927C30.9877 5.96527 29.6828 4.66064 28.0788 4.66064ZM28.0788 8.36742C27.6388 8.36742 27.2806 8.00927 27.2806 7.56927C27.2806 7.12899 27.6388 6.77111 28.0788 6.77111C28.5191 6.77111 28.8772 7.12899 28.8772 7.56927C28.8772 8.00927 28.5191 8.36742 28.0788 8.36742Z" fill="#333333"/>
</g>
<defs>
<clipPath id="clip0_32_26">
<rect width="36" height="36" fill="white"/>
</clipPath>
</defs>
</svg>
