<svg width="144" height="144" viewBox="0 0 144 144" fill="none" xmlns="http://www.w3.org/2000/svg">
<g clip-path="url(#clip0_21_4)">
<path d="M142.136 68.9962L141.805 68.1438C140.712 65.3192 138.049 63.4939 135.02 63.4939H119.879C116.701 58.1805 110.901 54.8344 104.631 54.8344H101.47V47.7075H104.777C106.679 47.7075 108.422 46.7485 109.441 45.1425C110.46 43.5366 110.584 41.5504 109.773 39.83L106.347 32.5566C106.002 15.8866 92.3355 2.43127 75.5842 2.43127H68.4188C51.6675 2.43127 38.0013 15.8863 37.6562 32.5563L34.2294 39.83C33.4189 41.5504 33.5429 43.5366 34.5619 45.1425C35.5806 46.7485 37.324 47.7075 39.2261 47.7075H42.5322V54.8344H39.3718C33.1011 54.8344 27.2991 58.1819 24.1233 63.4939H8.93181C5.95365 63.4939 3.30736 65.2795 2.19249 68.0363L2.01192 68.4801C-0.670641 75.1165 -0.670641 82.4259 2.01192 89.0632L2.18996 89.5028C3.3068 92.2644 5.95308 94.0489 8.93209 94.0489H21.6151V95.962C18.5503 101.713 16.9292 108.169 16.9292 114.686V132.287C16.9292 137.405 21.0931 141.569 26.211 141.569H43.907H100.095H117.791C122.909 141.569 127.073 137.405 127.073 132.287V114.686C127.073 108.169 125.452 101.713 122.387 95.962V94.0489H135.121C136.554 94.0489 137.943 93.6307 139.138 92.8395C140.332 92.0498 141.258 90.9326 141.818 89.6088C144.614 83.0073 144.727 75.6878 142.136 68.9962ZM101.471 63.7096V60.4586H104.631C109.338 60.4586 113.659 63.2182 115.642 67.4935C116.386 69.0905 116.763 70.8052 116.763 72.5906V87.9584C112.178 82.8942 105.869 78.6353 99.1395 76.9233C98.9347 76.871 98.7291 76.8209 98.523 76.7728C100.042 73.573 101.002 70.1108 101.333 66.58C101.425 65.6474 101.471 64.6816 101.471 63.7096ZM39.3845 42.0834L42.2434 36.0148H70.3957C71.9488 36.0148 73.2079 34.7557 73.2079 33.2026V33.2023C73.2076 31.6495 71.9488 30.3907 70.396 30.3907H43.43C44.8323 17.8432 55.5032 8.05544 68.4188 8.05544H75.5842C88.4998 8.05544 99.1704 17.8432 100.573 30.3907H92.9849C91.4318 30.3907 90.1729 31.6495 90.1729 33.2023V33.2026C90.1729 34.7557 91.4318 36.0148 92.9852 36.0148H101.76L104.619 42.0834H98.6591H45.3442H39.3845ZM95.8463 47.7075V57.6464V63.7093C95.8463 64.499 95.8089 65.2806 95.7344 66.0428C95.3561 70.0701 93.9816 73.9789 91.7558 77.3525C89.7949 80.3402 87.2654 82.8191 84.236 84.721C83.0747 85.4511 81.8603 86.067 80.6096 86.5688C79.7183 86.9262 78.8087 87.2261 77.8862 87.4679C73.8897 88.5156 69.6582 88.4756 65.6791 87.3487C63.617 86.7645 61.6229 85.8881 59.7644 84.7198C59.0439 84.2676 58.3537 83.7802 57.6905 83.2632C55.5665 81.6072 53.7381 79.6258 52.2368 77.3384C51.8931 76.8212 51.5618 76.2747 51.2513 75.7117C49.5894 72.7037 48.5853 69.4516 48.2666 66.0313C48.1932 65.2818 48.1558 64.5005 48.1558 63.7093V57.6464V47.7075H95.8463ZM27.2572 71.9246C27.3396 70.3783 27.71 68.8902 28.3626 67.4893C30.3437 63.2182 34.6651 60.4586 39.3721 60.4586H42.5325V63.7096C42.5325 64.6833 42.5789 65.6491 42.6689 66.5674C43.0011 70.1297 43.9438 73.5539 45.4752 76.77C39.0276 78.2648 33.0639 82.0114 28.4306 86.7018C28.3859 86.7471 28.342 86.7935 28.2976 86.8388C27.9502 87.194 27.608 87.5548 27.2733 87.9238C27.2623 87.9356 27.2508 87.9469 27.2401 87.959V72.5906H27.2395C27.2395 72.3676 27.2454 72.1454 27.2572 71.9246ZM21.8952 69.4516C21.873 69.5762 21.8502 69.7005 21.8308 69.8256C21.8021 70.0101 21.7785 70.1961 21.7554 70.382C21.7408 70.5009 21.7242 70.6193 21.7118 70.7389C21.6907 70.9442 21.6761 71.1506 21.662 71.3573C21.6553 71.4586 21.6452 71.5593 21.6401 71.6608C21.6244 71.9693 21.6154 72.2793 21.6154 72.5909V88.425H8.93181C8.25653 88.425 7.6569 88.0206 7.40377 87.3945L7.22602 86.9555C5.09274 81.6781 5.09274 75.8655 7.22321 70.5954L7.40377 70.1519C7.65774 69.5241 8.25737 69.1186 8.93181 69.1186H21.9526C21.9309 69.2291 21.9149 69.3408 21.8952 69.4516ZM117.791 135.945H102.908V121.069C102.908 119.516 101.649 118.257 100.095 118.257C98.5421 118.257 97.2832 119.516 97.2832 121.069V135.945H46.7195V121.069C46.7195 119.516 45.4606 118.257 43.9073 118.257C42.3539 118.257 41.095 119.516 41.095 121.069V135.945H26.2113C24.1944 135.945 22.5536 134.304 22.5536 132.287V114.686C22.5536 108.874 24.0507 103.117 26.8826 98.0396C27.0336 97.769 27.1875 97.5021 27.3385 97.2456C28.2228 95.7586 29.2187 94.3375 30.3006 93.0198C34.6896 87.6662 41.2289 83.0475 48.5619 81.8952C50.8052 84.9184 53.5609 87.4657 56.7733 89.4822C66.0245 95.2982 77.979 95.2982 87.2288 89.4834C90.4415 87.4662 93.1972 84.9192 95.4402 81.8966C96.2181 82.0195 96.9904 82.179 97.7507 82.3731C103.91 83.9405 109.685 88.1187 113.703 93.0201C114.023 93.4105 114.335 93.809 114.639 94.2143C115.548 95.431 116.38 96.7118 117.12 98.0379C119.952 103.117 121.449 108.874 121.449 114.686V132.287C121.449 134.304 119.808 135.945 117.791 135.945ZM136.64 87.4165C136.639 87.4167 136.639 87.4173 136.639 87.4179C136.512 87.7191 136.303 87.9719 136.034 88.1497C135.762 88.3297 135.447 88.4247 135.121 88.4247H122.388V72.5906C122.388 72.279 122.379 71.9691 122.363 71.6602C122.358 71.5582 122.348 71.4572 122.341 71.3556C122.327 71.1495 122.312 70.9436 122.291 70.7389C122.279 70.6176 122.262 70.4976 122.247 70.3769C122.224 70.1932 122.201 70.0099 122.172 69.8276C122.152 69.6994 122.129 69.5717 122.106 69.444C122.087 69.3354 122.071 69.226 122.05 69.1177H135.02C135.707 69.1177 136.312 69.5315 136.561 70.1755L136.892 71.0291C138.952 76.3481 138.862 82.1678 136.64 87.4165Z" fill="#333333"/>
<path d="M84.4462 32.6537C84.2847 31.7922 83.6739 30.9791 82.7646 30.6065C82.5959 30.5361 82.4187 30.4827 82.2387 30.4461C80.9607 30.1888 79.6144 30.8599 79.0949 32.128C78.7276 33.0089 78.8367 34.0088 79.3536 34.7631C79.8304 35.4915 80.7053 36.0144 81.6905 36.0144C81.8733 36.0144 82.059 35.995 82.2387 35.9584C82.4187 35.9247 82.5959 35.8684 82.7646 35.7981C83.6635 35.4297 84.2802 34.6244 84.4462 33.754C84.4827 33.5714 84.5024 33.3861 84.5024 33.2035V33.2033V33.2019C84.5024 33.0193 84.4827 32.8337 84.4462 32.6537Z" fill="#333333"/>
<path d="M80.3864 71.9681C79.4155 70.7553 77.6459 70.559 76.4337 71.5302C73.8234 73.6196 70.177 73.6196 67.5667 71.5302C66.3537 70.5593 64.5843 70.7556 63.614 71.9681C62.6437 73.1808 62.8397 74.9505 64.0522 75.9208C66.3922 77.7939 69.1963 78.7305 72.0003 78.7305C74.8044 78.7305 77.6088 77.7939 79.9485 75.9208C81.161 74.9502 81.357 73.1806 80.3864 71.9681Z" fill="#333333"/>
</g>
<defs>
<clipPath id="clip0_21_4">
<rect width="144" height="144" fill="white"/>
</clipPath>
</defs>
</svg>
