<svg width="144" height="144" viewBox="0 0 144 144" fill="none" xmlns="http://www.w3.org/2000/svg">
<path d="M60.75 56.4772V54C60.75 51.0705 58.8623 48.5955 56.25 47.664V33.75H60.75C63.2318 33.75 65.25 31.7318 65.25 29.25V24.75C65.25 22.2682 63.2318 20.25 60.75 20.25H11.25C8.76825 20.25 6.75 22.2682 6.75 24.75V29.25C6.75 31.7318 8.76825 33.75 11.25 33.75H15.75V47.664C13.1377 48.5955 11.25 51.0705 11.25 54V56.4772C6.12225 57.5212 2.25 62.0662 2.25 67.5V121.5C2.25 126.367 5.37525 130.482 9.70875 132.046C9.27 132.941 9 133.936 9 135C9 138.721 12.0285 141.75 15.75 141.75C19.4715 141.75 22.5 138.721 22.5 135C22.5 134.208 22.338 133.456 22.086 132.75H49.9162C49.662 133.456 49.5 134.208 49.5 135C49.5 138.721 52.5285 141.75 56.25 141.75C59.9715 141.75 63 138.721 63 135C63 133.936 62.73 132.941 62.2912 132.046C66.6247 130.482 69.75 126.367 69.75 121.5V67.5C69.75 62.0662 65.8778 57.5212 60.75 56.4772ZM51.75 47.25H47.25V33.75H51.75V47.25ZM42.75 33.75V47.25H29.25V33.75H42.75ZM11.25 24.75H60.75L60.7523 29.25H11.25V24.75ZM24.75 33.75V47.25H20.25V33.75H24.75ZM18 51.75H54C55.2397 51.75 56.25 52.758 56.25 54V56.25H15.75V54C15.75 52.758 16.7603 51.75 18 51.75ZM13.5 60.75H15.75H56.25H58.5C62.2215 60.75 65.25 63.7785 65.25 67.5V119.25H60.75V94.5C60.75 90.7785 57.7215 87.75 54 87.75C50.2785 87.75 47.25 90.7785 47.25 94.5V119.25H42.75V94.5C42.75 90.7785 39.7215 87.75 36 87.75C32.2785 87.75 29.25 90.7785 29.25 94.5V119.25H24.75V94.5C24.75 90.7785 21.7215 87.75 18 87.75C14.2785 87.75 11.25 90.7785 11.25 94.5V119.25H6.75V67.5C6.75 63.7785 9.7785 60.75 13.5 60.75ZM56.25 119.25H51.75V94.5C51.75 93.258 52.7603 92.25 54 92.25C55.2397 92.25 56.25 93.258 56.25 94.5V119.25ZM38.25 119.25H33.75V94.5C33.75 93.258 34.7603 92.25 36 92.25C37.2397 92.25 38.25 93.258 38.25 94.5V119.25ZM20.25 119.25H15.75V94.5C15.75 93.258 16.7603 92.25 18 92.25C19.2397 92.25 20.25 93.258 20.25 94.5V119.25ZM18 135C18 136.242 16.9897 137.25 15.75 137.25C14.5103 137.25 13.5 136.242 13.5 135C13.5 133.758 14.5103 132.75 15.75 132.75C16.9897 132.75 18 133.758 18 135ZM56.25 137.25C55.0103 137.25 54 136.242 54 135C54 133.758 55.0103 132.75 56.25 132.75C57.4897 132.75 58.5 133.758 58.5 135C58.5 136.242 57.4897 137.25 56.25 137.25ZM58.5 128.25H13.5C10.5705 128.25 8.0955 126.362 7.164 123.75H64.8338C63.9045 126.362 61.4295 128.25 58.5 128.25Z" fill="#333333"/>
<path d="M18 83.25H54C57.7215 83.25 60.75 80.2215 60.75 76.5V72C60.75 68.2785 57.7215 65.25 54 65.25H18C14.2785 65.25 11.25 68.2785 11.25 72V76.5C11.25 80.2215 14.2785 83.25 18 83.25ZM15.75 72C15.75 70.758 16.7603 69.75 18 69.75H54C55.2397 69.75 56.25 70.758 56.25 72V76.5C56.25 77.742 55.2397 78.75 54 78.75H18C16.7603 78.75 15.75 77.742 15.75 76.5V72Z" fill="#333333"/>
<path d="M139.5 55.4827V31.5C139.5 25.2967 134.453 20.25 128.25 20.25H126C126 10.3253 117.925 2.25 108 2.25C98.0753 2.25 90 10.3253 90 20.25H87.75C81.5468 20.25 76.5 25.2967 76.5 31.5V55.4827C75.069 59.2223 74.25 63.2632 74.25 67.5V81C74.25 87.2032 79.2968 92.25 85.5 92.25H87.75V130.5C87.75 136.703 92.7967 141.75 99 141.75C102.692 141.75 105.948 139.937 108 137.18C110.052 139.937 113.308 141.75 117 141.75C123.203 141.75 128.25 136.703 128.25 130.5V92.25H130.5C136.703 92.25 141.75 87.2032 141.75 81V67.5C141.75 63.2632 140.931 59.2223 139.5 55.4827ZM128.25 24.75C131.972 24.75 135 27.7785 135 31.5V47.3355C130.768 41.6835 124.835 37.3747 117.934 35.2463C121.581 32.823 124.281 29.1015 125.408 24.75H128.25ZM126 65.25C126 66.492 124.99 67.5 123.75 67.5H119.25C118.01 67.5 117 66.492 117 65.25V47.1802C118.393 45.3083 119.248 43.0133 119.25 40.5068C121.689 41.526 123.948 42.8827 126 44.4937V65.25ZM90 65.25V44.4915C92.052 42.8828 94.311 41.526 96.75 40.5045C96.7523 43.011 97.605 45.306 99 47.178V65.25C99 66.492 97.9897 67.5 96.75 67.5H92.25C91.0103 67.5 90 66.492 90 65.25ZM101.25 40.5V39.0668C103.421 38.5515 105.674 38.25 108 38.25C110.326 38.25 112.579 38.5515 114.75 39.0668V40.5C114.75 44.2215 111.722 47.25 108 47.25C104.278 47.25 101.25 44.2215 101.25 40.5ZM108 6.75C115.445 6.75 121.5 12.8048 121.5 20.25C121.5 27.6952 115.445 33.75 108 33.75C100.555 33.75 94.5 27.6952 94.5 20.25C94.5 12.8048 100.555 6.75 108 6.75ZM81 31.5C81 27.7785 84.0285 24.75 87.75 24.75H90.5918C91.719 29.1015 94.4167 32.823 98.0662 35.2463C91.1655 37.3747 85.2323 41.6813 81 47.3355V31.5ZM85.5 87.75C81.7785 87.75 78.75 84.7215 78.75 81V67.5C78.75 60.4103 81.288 53.9055 85.5 48.8363V65.25C85.5 67.2367 86.3798 69.0075 87.75 70.245V87.75H85.5ZM123.75 130.5C123.75 134.221 120.722 137.25 117 137.25C113.278 137.25 110.25 134.221 110.25 130.5V81H105.75V130.5C105.75 134.221 102.722 137.25 99 137.25C95.2785 137.25 92.25 134.221 92.25 130.5V72H96.75C100.472 72 103.5 68.9715 103.5 65.25V50.796C104.882 51.4035 106.398 51.75 108 51.75C109.602 51.75 111.118 51.4035 112.5 50.796V65.25C112.5 68.9715 115.528 72 119.25 72H123.75V130.5ZM137.25 81C137.25 84.7215 134.222 87.75 130.5 87.75H128.25V70.245C129.62 69.0098 130.5 67.2367 130.5 65.25V48.8363C134.712 53.9055 137.25 60.4103 137.25 67.5V81Z" fill="#333333"/>
</svg>
