<svg width="144" height="144" viewBox="0 0 144 144" fill="none" xmlns="http://www.w3.org/2000/svg">
<g clip-path="url(#clip0_24_45)">
<path d="M72.0255 0.0150154C43.2165 0.0108163 17.1795 17.1831 5.84038 43.6667L4.94297 43.9643L5.29089 45.008C-9.6388 81.8302 8.10821 123.783 44.9303 138.713C53.5304 142.2 62.7238 143.99 72.0042 143.985C111.76 143.991 143.994 111.767 144 72.0108C144.006 32.2547 111.782 0.0207142 72.0255 0.0150154ZM128.49 108.294L124.793 104.6V95.995C124.797 95.6237 124.715 95.2566 124.553 94.9224L115.195 76.2327V67.201C115.195 66.399 114.795 65.6497 114.127 65.2046L106.929 60.4056C106.365 60.0289 105.667 59.9086 105.009 60.0745L96.1936 62.2772L81.3862 55.9234L79.3491 41.6511L84.9951 36.0075H97.115L101.194 42.1382C101.562 42.6895 102.143 43.0641 102.797 43.1724L117.194 45.5719C117.58 45.6367 117.975 45.6052 118.346 45.4807L131.605 41.0609C142.727 62.4029 141.537 88.0719 128.49 108.294ZM118.593 23.6597L114.691 26.2607L103.814 24.0844L96.7574 21.7353C96.3255 21.5886 95.8606 21.57 95.4185 21.6825L86.4972 23.9116L82.586 22.6087L85.4846 16.8115H93.5997C93.9719 16.8118 94.339 16.7257 94.6723 16.5596L102.975 12.4084C108.692 15.3928 113.952 19.1816 118.593 23.6597ZM45.7225 10.1721L51.4813 14.0113C51.7644 14.1997 52.0841 14.3256 52.4195 14.3808L64.0475 16.3196L62.9125 19.7149L56.8538 21.7377C56.3112 21.9183 55.8508 22.2866 55.5556 22.7767L48.6643 34.2607L37.5954 40.9025L21.2788 43.2324C20.0961 43.3995 19.2167 44.4112 19.2152 45.6055V52.804C19.2152 53.4405 19.4683 54.0506 19.9182 54.5005L24.0142 58.5964V62.7188L14.0323 56.0625L10.4114 45.2C17.3004 29.4593 29.9269 16.9339 45.7225 10.1721ZM38.8911 88.8445L28.0454 86.673L24.0142 78.6322V72.9934L32.9547 64.0529L36.2636 70.6731C36.6701 71.4865 37.5018 72.0003 38.4112 72H53.8496L60.3498 82.8338C60.7835 83.5557 61.564 83.9972 62.4062 83.9975H69.0768L67.3972 92.4126L58.3126 101.497C57.8618 101.947 57.6081 102.557 57.6072 103.194V109.192L48.969 115.671C48.3649 116.124 48.0092 116.835 48.0092 117.591V126.258L45.0242 125.269L40.8107 114.73V91.196C40.811 90.0557 40.0084 89.0725 38.8911 88.8445ZM31.6782 125.731C9.05421 108.758 -0.513498 79.4313 7.74798 52.3817L9.74197 58.3613C9.90993 58.8673 10.2417 59.3031 10.685 59.5994L22.6465 67.5729L19.9182 70.3036C19.4683 70.7535 19.2152 71.3635 19.2152 72V79.1985C19.2149 79.5707 19.301 79.9379 19.4671 80.2711L24.2661 89.8691C24.5985 90.532 25.2184 91.0041 25.9458 91.148L36.0237 93.1612V115.191C36.0234 115.496 36.0813 115.798 36.1941 116.081L40.9931 128.079C41.2558 128.734 41.7939 129.241 42.464 129.463L49.6625 131.863C49.903 131.944 50.1549 131.986 50.4087 131.988C51.7338 131.988 52.8082 130.913 52.8082 129.588V118.79L61.4464 112.312C62.0505 111.858 62.4062 111.147 62.4062 110.392V104.187L71.3011 95.292C71.6356 94.9569 71.8635 94.5301 71.9562 94.0658L74.3557 82.0683C74.6155 80.7687 73.7726 79.5048 72.473 79.245C72.3185 79.2141 72.1617 79.1985 72.0042 79.1985H63.7643L57.2641 68.3648C56.8304 67.6428 56.0499 67.2013 55.2077 67.201H39.8941L35.7717 58.9299C35.4265 58.2395 34.7703 57.7572 34.0081 57.6342C33.2463 57.5025 32.4685 57.7539 31.9277 58.3061L28.8132 61.4086V57.603C28.8132 56.9665 28.56 56.3565 28.1101 55.9066L24.0142 51.8106V47.6859L38.7519 45.5815C39.0684 45.5356 39.3728 45.4271 39.6469 45.2624L51.6444 38.0639C51.981 37.8617 52.2629 37.5798 52.4651 37.2433L59.2077 26.0064L65.5639 23.8852C66.2817 23.6498 66.845 23.0868 67.0804 22.3688L69.4799 15.1703C69.8956 13.912 69.2127 12.5548 67.9544 12.1391C67.8384 12.1007 67.7193 12.0713 67.5987 12.0509L53.7104 9.73539L51.2701 8.10853C66.3699 3.19375 82.7243 3.80203 97.4173 9.82417L93.0334 12.0125H84.0017C83.0878 12.0074 82.2507 12.5221 81.8421 13.3394L77.0431 22.9374C76.452 24.1234 76.934 25.5643 78.1199 26.1555C78.221 26.2059 78.3254 26.2491 78.4324 26.2847L85.631 28.6842C86.0629 28.8309 86.5278 28.8495 86.9699 28.737L95.8912 26.5079L102.427 28.6842C102.521 28.7178 102.617 28.7436 102.715 28.761L114.713 31.1605C115.337 31.2877 115.986 31.1599 116.515 30.8054L121.976 27.163C124.664 30.1566 127.079 33.384 129.194 36.8065L117.388 40.7417L104.606 38.611L100.383 32.2763C99.9404 31.6125 99.1965 31.2124 98.3987 31.2085H84.0017C83.3652 31.2085 82.7551 31.4617 82.3052 31.9116L75.1068 39.1101C74.5723 39.6443 74.3206 40.3992 74.4277 41.1472L76.8272 57.9437C76.9481 58.7743 77.4939 59.4812 78.2669 59.8082L95.0634 67.0067C95.5445 67.2151 96.0814 67.258 96.5895 67.129L105.158 64.9863L110.396 68.4847V76.799C110.392 77.1703 110.474 77.5375 110.636 77.8716L119.994 96.5613V105.593C119.994 106.229 120.247 106.84 120.697 107.289L125.717 112.312C103.455 141.985 61.3519 147.994 31.6782 125.731Z" fill="#333333"/>
</g>
<defs>
<clipPath id="clip0_24_45">
<rect width="144" height="144" fill="white"/>
</clipPath>
</defs>
</svg>
