<svg width="140" height="140" viewBox="0 0 140 140" fill="none" xmlns="http://www.w3.org/2000/svg">
<path d="M70 83.5C74.9635 83.5 79 79.4635 79 74.5V70H61V74.5C61 79.4635 65.0365 83.5 70 83.5ZM74.5 74.5C74.5 76.9818 72.4818 79 70 79C67.5182 79 65.5 76.9818 65.5 74.5H74.5Z" fill="#333333"/>
<path d="M47.5 27.9295L59.6905 17.7708C61.9517 15.8852 63.25 13.1132 63.25 10.168C63.25 7.5265 62.2218 5.0425 60.3408 3.15925C58.4643 1.28275 55.9713 0.25 53.3185 0.25H52.9315C50.974 0.25 49.102 0.8125 47.5 1.86325C45.898 0.8125 44.026 0.25 42.0685 0.25H41.6815C39.0287 0.25 36.5358 1.28275 34.6458 3.1705C32.7783 5.04025 31.75 7.5265 31.75 10.168C31.75 13.1155 33.0483 15.8852 35.3095 17.7708L47.5 27.9295ZM37.8408 6.343C38.8668 5.31475 40.2325 4.75 41.6815 4.75H42.0685C43.5198 4.75 44.8832 5.31475 45.9092 6.343L47.5 7.9315L49.0908 6.343C50.1168 5.31475 51.4825 4.75 52.9315 4.75H53.3185C54.7698 4.75 56.1333 5.31475 57.1683 6.34975C58.1875 7.37125 58.75 8.728 58.75 10.168C58.75 11.7745 58.0435 13.2865 56.8082 14.3147L47.5 22.0705L38.1918 14.3147C36.9565 13.2865 36.25 11.7745 36.25 10.168C36.25 8.728 36.8125 7.37125 37.8408 6.343Z" fill="#333333"/>
<path d="M16 50.4295L28.1905 40.2708C30.4517 38.3853 31.75 35.6132 31.75 32.668C31.75 30.0265 30.7218 27.5425 28.8407 25.6593C26.9642 23.7828 24.4713 22.75 21.8185 22.75H21.4315C19.474 22.75 17.602 23.3125 16 24.3633C14.398 23.3125 12.526 22.75 10.5685 22.75H10.1815C7.52875 22.75 5.03575 23.7828 3.14575 25.6705C1.27825 27.5403 0.25 30.0265 0.25 32.668C0.25 35.6155 1.54825 38.3853 3.8095 40.2708L16 50.4295ZM6.34075 28.843C7.36675 27.8148 8.7325 27.25 10.1815 27.25H10.5685C12.0197 27.25 13.3833 27.8148 14.4093 28.843L16 30.4315L17.5907 28.843C18.6167 27.8148 19.9825 27.25 21.4315 27.25H21.8185C23.2698 27.25 24.6332 27.8148 25.6682 28.8498C26.6875 29.8713 27.25 31.228 27.25 32.668C27.25 34.2745 26.5435 35.7865 25.3083 36.8147L16 44.5705L6.69175 36.8147C5.4565 35.7865 4.75 34.2745 4.75 32.668C4.75 31.228 5.3125 29.8713 6.34075 28.843Z" fill="#333333"/>
<path d="M92.5 27.9295L104.69 17.7708C106.952 15.8852 108.25 13.1132 108.25 10.168C108.25 7.5265 107.222 5.0425 105.341 3.15925C103.464 1.28275 100.971 0.25 98.3185 0.25H97.9315C95.974 0.25 94.102 0.8125 92.5 1.86325C90.898 0.8125 89.026 0.25 87.0685 0.25H86.6815C84.0288 0.25 81.5357 1.28275 79.6457 3.1705C77.7782 5.04025 76.75 7.5265 76.75 10.168C76.75 13.1155 78.0483 15.8852 80.3095 17.7708L92.5 27.9295ZM82.8408 6.343C83.8668 5.31475 85.2325 4.75 86.6815 4.75H87.0685C88.5197 4.75 89.8832 5.31475 90.9092 6.343L92.5 7.9315L94.0908 6.343C95.1168 5.31475 96.4825 4.75 97.9315 4.75H98.3185C99.7697 4.75 101.133 5.31475 102.168 6.34975C103.188 7.37125 103.75 8.728 103.75 10.168C103.75 11.7745 103.044 13.2865 101.808 14.3147L92.5 22.0705L83.1917 14.3147C81.9565 13.2865 81.25 11.7745 81.25 10.168C81.25 8.728 81.8125 7.37125 82.8408 6.343Z" fill="#333333"/>
<path d="M111.81 40.2708L124 50.4295L136.19 40.2708C138.452 38.3853 139.75 35.6132 139.75 32.668C139.75 30.0265 138.722 27.5425 136.841 25.6593C134.964 23.7828 132.471 22.75 129.818 22.75H129.432C127.474 22.75 125.602 23.3125 124 24.3633C122.398 23.3125 120.526 22.75 118.568 22.75H118.182C115.529 22.75 113.036 23.7828 111.146 25.6705C109.278 27.5403 108.25 30.0265 108.25 32.668C108.25 35.6132 109.548 38.3853 111.81 40.2708ZM114.341 28.843C115.367 27.8148 116.733 27.25 118.182 27.25H118.568C120.02 27.25 121.383 27.8148 122.409 28.843L124 30.4315L125.591 28.843C126.617 27.8148 127.983 27.25 129.432 27.25H129.818C131.27 27.25 132.633 27.8148 133.668 28.8498C134.688 29.8713 135.25 31.228 135.25 32.668C135.25 34.2745 134.544 35.7865 133.308 36.8147L124 44.5705L114.692 36.8147C113.456 35.7865 112.75 34.2745 112.75 32.668C112.75 31.228 113.313 29.8713 114.341 28.843Z" fill="#333333"/>
<path d="M132.554 61H129.432L127.332 58.9007C125.784 57.3527 123.725 56.5 121.536 56.5C118.004 56.5 114.879 58.7522 113.76 62.1047L113.047 64.2445L81.916 93.301L80.071 89.6087C83.9388 87.2013 86.8975 83.4527 88.2858 79.0023H90.25C95.2135 79.0023 99.25 74.9657 99.25 70.0023C99.25 67.921 98.5097 66.0265 97.3195 64.4987L98.5278 59.677C99.007 57.7465 99.25 55.7665 99.25 53.7865C99.25 40.3945 88.3555 29.5 74.9635 29.5H65.0365C51.6445 29.5 40.75 40.3945 40.75 53.7865C40.75 55.7643 40.993 57.7465 41.4745 59.677L42.6805 64.4942C41.4902 66.0243 40.75 67.9188 40.75 70C40.75 74.9635 44.7865 79 49.75 79H51.7165C53.1048 83.4505 56.0612 87.2013 59.9312 89.6065L58.0863 93.2987L26.953 64.2445L26.2397 62.1025C25.1215 58.7522 21.9963 56.5 18.4638 56.5C16.2745 56.5 14.2157 57.3527 12.6678 58.9007L10.5685 61H7.4455C3.47875 61 0.25 64.2287 0.25 68.1955C0.25 71.6133 2.68225 74.581 6.0325 75.2515L12.598 76.5632L43 109.137V139.75H97V109.137L127.402 76.5632L133.967 75.2515C137.318 74.581 139.75 71.6133 139.75 68.1955C139.75 64.2287 136.521 61 132.554 61ZM61 101.682L64.5438 104.517C63.313 104.886 62.1205 105.361 61 105.991V101.682ZM90.25 74.5H89.1295L89.773 65.5H90.25C92.7318 65.5 94.75 67.5182 94.75 70C94.75 72.4818 92.7318 74.5 90.25 74.5ZM45.25 70C45.25 67.5182 47.2682 65.5 49.75 65.5H50.227L50.8682 74.5H49.75C47.2682 74.5 45.25 72.4818 45.25 70ZM49.75 57.8612V58.3923C49.75 58.687 49.7612 58.9795 49.7837 59.2653L49.9075 61H49.75C48.6362 61 47.581 61.2295 46.5933 61.6007L45.8395 58.588C45.448 57.0152 45.25 55.3998 45.25 53.7865C45.25 42.8763 54.1263 34 65.0365 34H74.9635C85.8738 34 94.75 42.8763 94.75 53.7865C94.75 55.3975 94.552 57.0152 94.1605 58.5858L93.4068 61.6007C92.4212 61.2295 91.3637 61 90.25 61H90.0947L90.1848 59.7377C91.6292 58.0255 92.5 55.8137 92.5 53.4017V52H88V53.4017C88 56.3515 85.6015 58.75 82.6517 58.75C81.0182 58.75 79.4973 58.0188 78.478 56.7408L75.8118 53.4108C72.8057 49.6555 68.3237 47.5 63.511 47.5H63.25C59.8615 47.5 56.5788 48.4945 53.7573 50.3733C51.2485 52.0473 49.75 54.8462 49.75 57.8612ZM55.3705 74.3785L54.2703 58.939C54.2568 58.7568 54.25 58.5745 54.25 58.3923V57.8612C54.25 56.3537 54.9993 54.9543 56.2548 54.1173C58.3315 52.7335 60.7525 52 63.25 52H63.511C66.9467 52 70.1485 53.539 72.295 56.2233L74.9613 59.5533C76.84 61.9023 79.6435 63.25 82.6517 63.25C83.6237 63.25 84.5643 63.1082 85.4508 62.845L84.6295 74.3785C84.0827 82.0172 77.6568 88 70 88C62.3433 88 55.9172 82.0172 55.3705 74.3785ZM70 92.5C72.088 92.5 74.0995 92.1423 75.9917 91.5123L78.424 96.379L70 103.118L61.576 96.379L64.0083 91.5123C65.9005 92.1423 67.912 92.5 70 92.5ZM79 101.682V105.991C77.8795 105.361 76.687 104.886 75.4562 104.517L79 101.682ZM4.75 68.1955C4.75 66.7105 5.95825 65.5 7.4455 65.5H12.4315L15.8492 62.0823C16.5468 61.3848 17.476 61 18.4638 61C20.0568 61 21.4675 62.017 21.9737 63.5267L22.372 64.7215L13.165 72.088L6.919 70.8393C5.66125 70.5873 4.75 69.4757 4.75 68.1955ZM92.5 107.363V135.25H47.5V107.363L17.053 74.7407L24.8875 68.4722L56.5 97.9788V115.934L60.3408 112.091C62.818 109.614 66.1097 108.25 69.613 108.25H70.387C73.8903 108.25 77.1842 109.614 79.6592 112.091L83.5 115.934V97.9788L115.112 68.4722L122.947 74.7407L92.5 107.363ZM133.083 70.8393L126.837 72.088L117.63 64.7215L118.029 63.529C118.533 62.017 119.943 61 121.536 61C122.522 61 123.453 61.3848 124.151 62.0823L127.568 65.5H132.554C134.042 65.5 135.25 66.7105 135.25 68.1955C135.25 69.4757 134.339 70.5873 133.083 70.8393Z" fill="#333333"/>
</svg>
