<svg width="24" height="24" viewBox="0 0 24 24" fill="none" xmlns="http://www.w3.org/2000/svg">
<g clip-path="url(#clip0_14_44)">
<path d="M23.7861 17.3671C23.7216 17.2591 23.3225 16.392 21.4024 14.6099C19.3923 12.7438 19.6623 13.0468 22.0835 9.82003C23.5581 7.85489 24.1476 6.6548 23.9631 6.14176C23.7876 5.65273 22.703 5.78173 22.703 5.78173L19.0967 5.80274C19.0967 5.80274 18.8297 5.76673 18.6302 5.88524C18.4367 6.00225 18.3122 6.27227 18.3122 6.27227C18.3122 6.27227 17.7406 7.79338 16.9786 9.08648C15.372 11.8152 14.7284 11.9592 14.4659 11.7897C13.8554 11.3952 14.0084 10.2026 14.0084 9.3565C14.0084 6.7118 14.4089 5.60922 13.2268 5.3242C12.8338 5.22969 12.5458 5.16669 11.5422 5.15619C10.2551 5.14269 9.16451 5.16069 8.54796 5.46221C8.13693 5.66323 7.82041 6.11176 8.01392 6.13726C8.25244 6.16876 8.79248 6.28277 9.079 6.6728C9.44953 7.17534 9.43603 8.30642 9.43603 8.30642C9.43603 8.30642 9.64904 11.4192 8.93949 11.8062C8.45195 12.0717 7.7844 11.5302 6.3518 9.05348C5.61825 7.78588 5.06321 6.38328 5.06321 6.38328C5.06321 6.38328 4.9567 6.12226 4.76618 5.98275C4.53517 5.81324 4.21114 5.75923 4.21114 5.75923L0.781892 5.78023C0.781892 5.78023 0.267354 5.79524 0.0783406 6.01875C-0.0896717 6.21827 0.0648396 6.6293 0.0648396 6.6293C0.0648396 6.6293 2.75004 12.9103 5.78926 16.077C8.57796 18.9797 11.7432 18.7892 11.7432 18.7892H13.1773C13.1773 18.7892 13.6108 18.7412 13.8313 18.5027C14.0354 18.2837 14.0279 17.8726 14.0279 17.8726C14.0279 17.8726 13.9994 15.948 14.8934 15.6645C15.774 15.3854 16.9051 17.5246 18.1037 18.3482C19.0097 18.9707 19.6983 18.8342 19.6983 18.8342L22.904 18.7892C22.904 18.7892 24.5811 18.6857 23.7861 17.3671Z" fill="white"/>
</g>
<defs>
<clipPath id="clip0_14_44">
<rect width="24" height="24" fill="white"/>
</clipPath>
</defs>
</svg>
